<?xml version="1.0" encoding="UTF-8"?>
<svg version="1.1" xmlns="http://www.w3.org/2000/svg" width="62" height="72">
<path d="M0 0 C3.36591866 1.44253657 5.51047079 3.33264727 8 6 C6.87548273 8.9719385 5.77706209 11.33440687 4 14 C4.88751953 13.96519531 4.88751953 13.96519531 5.79296875 13.9296875 C13.54257218 13.75269819 17.56268787 15.41713603 23.546875 20.26953125 C25.50794004 22.60488558 26.0045455 23.93633461 26 27 C23.98046875 29.67578125 23.98046875 29.67578125 21.1875 32.3125 C19.81658203 33.63701172 19.81658203 33.63701172 18.41796875 34.98828125 C16 37 16 37 14 37 C13.62488281 37.86044922 13.62488281 37.86044922 13.2421875 38.73828125 C11.82705424 41.31489181 10.19586516 43.10491296 8.125 45.1875 C7.44695313 45.88230469 6.76890625 46.57710937 6.0703125 47.29296875 C3.92628224 49.06078238 2.76770299 49.84438618 0 50 C-2.33370072 48.63510623 -4.00594554 46.8580962 -6 45 C-5.48967606 41.22360282 -4.79233071 39.55277419 -2 37 C-2.86882813 36.99742188 -3.73765625 36.99484375 -4.6328125 36.9921875 C-15.22071771 36.63688867 -15.22071771 36.63688867 -18.8125 33.0625 C-21 30 -21 30 -21 28 C-21.99 27.67 -22.98 27.34 -24 27 C-23.48628707 22.86382578 -22.42346491 20.92535531 -19.47265625 18.01171875 C-18.76302734 17.30595703 -18.05339844 16.60019531 -17.32226562 15.87304688 C-16.57654297 15.15181641 -15.83082031 14.43058594 -15.0625 13.6875 C-14.32064453 12.94693359 -13.57878906 12.20636719 -12.81445312 11.44335938 C-7.28078917 6 -7.28078917 6 -5 6 C-4.731875 5.38125 -4.46375 4.7625 -4.1875 4.125 C-3 2 -3 2 0 0 Z M1 15 C-1.97 17.97 -4.94 20.94 -8 24 C-6.4005386 27.19892281 -5.17187081 29.15353735 -2.875 31.75 C-2.33617187 32.36359375 -1.79734375 32.9771875 -1.2421875 33.609375 C-0.83226562 34.06828125 -0.42234375 34.5271875 0 35 C1.1055189 34.06409496 2.20935453 33.12620142 3.3125 32.1875 C3.92738281 31.66542969 4.54226562 31.14335938 5.17578125 30.60546875 C6.85424679 29.12827531 8.43882034 27.59960869 10 26 C8.2034488 21.75360625 5.18376817 17.09188408 1 15 Z " fill="#343882" transform="translate(34,11)"/>
<path d="M0 0 C3.36591866 1.44253657 5.51047079 3.33264727 8 6 C6.30703883 11.38669462 2.9878425 14.21892214 -1.140625 17.91796875 C-1.87796875 18.60503906 -2.6153125 19.29210937 -3.375 20 C-4.08398438 20.639375 -4.79296875 21.27875 -5.5234375 21.9375 C-7.24055871 23.9076 -7.24055871 23.9076 -6.9765625 26.4375 C-5.81158241 29.49440774 -4.15879967 31.56264553 -2 34 C-14.90437076 34.86156778 -14.90437076 34.86156778 -18.625 31.625 C-19.40875 30.75875 -20.1925 29.8925 -21 29 C-21.99 28.34 -22.98 27.68 -24 27 C-23.48628707 22.86382578 -22.42346491 20.92535531 -19.47265625 18.01171875 C-18.76302734 17.30595703 -18.05339844 16.60019531 -17.32226562 15.87304688 C-16.57654297 15.15181641 -15.83082031 14.43058594 -15.0625 13.6875 C-14.32064453 12.94693359 -13.57878906 12.20636719 -12.81445312 11.44335938 C-7.28078917 6 -7.28078917 6 -5 6 C-4.731875 5.38125 -4.46375 4.7625 -4.1875 4.125 C-3 2 -3 2 0 0 Z " fill="#44A156" transform="translate(34,11)"/>
<path d="M0 0 C4.39149481 0.02952265 8.08069533 0.05442433 12.01171875 2.265625 C12.50671875 3.255625 12.50671875 3.255625 13.01171875 4.265625 C9.05171875 3.935625 5.09171875 3.605625 1.01171875 3.265625 C2.03265625 4.5959375 2.03265625 4.5959375 3.07421875 5.953125 C5.01171875 9.265625 5.01171875 9.265625 4.87890625 11.703125 C3.82635468 14.81336748 2.43315674 16.31303264 0.07421875 18.578125 C-0.63605469 19.27550781 -1.34632812 19.97289063 -2.078125 20.69140625 C-3.98828125 22.265625 -3.98828125 22.265625 -5.98828125 22.265625 C-6.27703125 22.843125 -6.56578125 23.420625 -6.86328125 24.015625 C-7.90494792 26.09895833 -8.94661458 28.18229167 -9.98828125 30.265625 C-9.32828125 31.255625 -8.66828125 32.245625 -7.98828125 33.265625 C-9.30828125 32.605625 -10.62828125 31.945625 -11.98828125 31.265625 C-11.47795731 27.48922782 -10.78061196 25.81839919 -7.98828125 23.265625 C-9.29152344 23.27916016 -9.29152344 23.27916016 -10.62109375 23.29296875 C-19.92174088 23.05369036 -19.92174088 23.05369036 -23.1875 20.640625 C-24.62857523 18.909939 -25.87125582 17.21914437 -26.98828125 15.265625 C-24.52028078 16.41735855 -22.9404456 17.31346065 -20.98828125 19.265625 C-18.08945042 19.50902051 -18.08945042 19.50902051 -14.86328125 19.390625 C-13.21972656 19.36355469 -13.21972656 19.36355469 -11.54296875 19.3359375 C-10.27839844 19.30113281 -10.27839844 19.30113281 -8.98828125 19.265625 C-10.63828125 17.615625 -12.28828125 15.965625 -13.98828125 14.265625 C-13.65828125 13.605625 -13.32828125 12.945625 -12.98828125 12.265625 C-10.34828125 14.905625 -7.70828125 17.545625 -4.98828125 20.265625 C-2.34828125 17.625625 0.29171875 14.985625 3.01171875 12.265625 C1.52303589 9.28825928 0.47293053 7.43123864 -1.61328125 5.015625 C-2.39703125 4.108125 -3.18078125 3.200625 -3.98828125 2.265625 C-1.98828125 0.265625 -1.98828125 0.265625 0 0 Z " fill="#19313A" transform="translate(39.98828125,24.734375)"/>
<path d="M0 0 C0.33 0.66 0.66 1.32 1 2 C0.54625 2.5775 0.0925 3.155 -0.375 3.75 C-2.02496705 5.90726524 -2.02496705 5.90726524 -3.0625 8.125 C-4.44787537 10.89575075 -5.67989962 11.87508278 -8.5625 13 C-11.14841441 13.74870114 -11.14841441 13.74870114 -12 16 C-11.34 16.33 -10.68 16.66 -10 17 C-10.763125 17.103125 -11.52625 17.20625 -12.3125 17.3125 C-15.19700648 18.05039701 -16.35495989 18.53243984 -18 21 C-17.77242269 23.16299211 -17.77242269 23.16299211 -17 25 C-17.99 24.67 -18.98 24.34 -20 24 C-19.48628707 19.86382578 -18.42346491 17.92535531 -15.47265625 15.01171875 C-14.76302734 14.30595703 -14.05339844 13.60019531 -13.32226562 12.87304688 C-12.57654297 12.15181641 -11.83082031 11.43058594 -11.0625 10.6875 C-10.32064453 9.94693359 -9.57878906 9.20636719 -8.81445312 8.44335938 C-3.28078917 3 -3.28078917 3 -1 3 C-0.67 2.01 -0.34 1.02 0 0 Z " fill="#2E6A43" transform="translate(30,14)"/>
<path d="M0 0 C4.39149481 0.02952265 8.08069533 0.05442433 12.01171875 2.265625 C12.34171875 2.925625 12.67171875 3.585625 13.01171875 4.265625 C9.05171875 3.935625 5.09171875 3.605625 1.01171875 3.265625 C1.34171875 4.255625 1.67171875 5.245625 2.01171875 6.265625 C0.13671875 5.953125 0.13671875 5.953125 -1.98828125 5.265625 C-2.64828125 4.275625 -3.30828125 3.285625 -3.98828125 2.265625 C-1.98828125 0.265625 -1.98828125 0.265625 0 0 Z " fill="#272C61" transform="translate(39.98828125,24.734375)"/>
<path d="M0 0 C0.66 0 1.32 0 2 0 C3 3 3 3 1.5625 6.25 C-1.34129279 11.0053401 -5.81579658 16.01599269 -11.25 17.6953125 C-12.11625 17.84613281 -12.11625 17.84613281 -13 18 C-12.34 17.67 -11.68 17.34 -11 17 C-10.9175 16.21625 -10.835 15.4325 -10.75 14.625 C-10.5025 13.75875 -10.255 12.8925 -10 12 C-7.1875 10.4375 -7.1875 10.4375 -4 9 C-1.58140803 7.24934167 -1.58140803 7.24934167 0 5 C0.33498301 2.33165034 0.33498301 2.33165034 0 0 Z " fill="#4C995E" transform="translate(37,15)"/>
<path d="M0 0 C9.37226277 -0.15620438 9.37226277 -0.15620438 12 1 C12.33 1.99 12.66 2.98 13 4 C12.2575 3.7525 11.515 3.505 10.75 3.25 C9.38875 3.12625 9.38875 3.12625 8 3 C5.66545339 4.83358335 5.66545339 4.83358335 4 7 C0 2.25 0 2.25 0 0 Z " fill="#383C8B" transform="translate(41,28)"/>
<path d="M0 0 C1.16959987 0.97566112 2.33561177 1.955625 3.5 2.9375 C4.1496875 3.48277344 4.799375 4.02804688 5.46875 4.58984375 C6.22671875 5.28787109 6.22671875 5.28787109 7 6 C7 6.33 7 6.66 7 7 C2.71 7 -1.58 7 -6 7 C-6.33 6.34 -6.66 5.68 -7 5 C-4.525 5.495 -4.525 5.495 -2 6 C-1.34 4.02 -0.68 2.04 0 0 Z " fill="#4AA05C" transform="translate(25,38)"/>
<path d="M0 0 C0.99 0.66 1.98 1.32 3 2 C1.58095673 6.51513768 -0.56734255 8.79121152 -4 12 C-5.39985782 13.39179721 -6.79546139 14.78788223 -8.1875 16.1875 C-10.125 18.125 -12.0625 20.0625 -14 22 C-13.44040477 18.17753412 -11.78682643 16.41028259 -9.0625 13.75 C-8.35222656 13.04359375 -7.64195313 12.3371875 -6.91015625 11.609375 C-5 10 -5 10 -3 10 C-1.11608215 6.73454239 -0.50712033 3.71888239 0 0 Z " fill="#19452E" transform="translate(39,15)"/>
</svg>
